# xmcd CD database file
#
# Track frame offsets:
#	150
#	21024
#	37812
#	55274
#	68285
#	81275
#	97619
#	115811
#	132089
#	150648
#	167030
#	185529
#
# Disc length: 2676 seconds
#
# Revision: 2
# Processed by: cddbd v1.5.2PL0 Copyright (c) Steve Scherf et al.
# Submitted via: CDex 1.72
#
DISCID=840a720c
DTITLE=Spugin, Steve (USA-11-Past Perfect-blugrss) - Past Perfect
DYEAR=2011
DGENRE=Bluegrass
TTITLE0=Fire on the Kettle
TTITLE1=The Walkin' Boss
TTITLE2=Collar to the Wind
TTITLE3=I Guess She'll Never Know
TTITLE4=Sasquatch
TTITLE5=This Might be the Year
TTITLE6=Run Away Home 
TTITLE7=The Lights of Reno
TTITLE8=Kodak 1955
TTITLE9=The Last Armadillo Waltz
TTITLE10=Song for a Winter's Night
TTITLE11=Gettin' Outta Here Alive
EXTD=YEAR: 2011
EXTT0=
EXTT1=
EXTT2=
EXTT3=
EXTT4=
EXTT5=
EXTT6=
EXTT7=
EXTT8=
EXTT9=
EXTT10=
EXTT11=
PLAYORDER=
